<svg xmlns="http://www.w3.org/2000/svg">
    <symbol xmlns="http://www.w3.org/2000/svg" id="circle" viewBox="0 0 20 20">
        <path d="M19 10C19 14.9706 14.9706 19 10 19C5.02944 19 1 14.9706 1 10C1 5.02944 5.02944 1 10 1C14.9706 1 19 5.02944 19 10Z" stroke="white" stroke-width="2"/>
    </symbol>
<symbol xmlns="http://www.w3.org/2000/svg" id="person" viewBox="0 0 24 24">
        <path d="M11.215,13.8c0,0-0.333,0.858-0.331,0.862l0.53,0.753h1.172l0.53-0.753c-0.004-0.013-0.332-0.862-0.332-0.862
		C12.746,13.805,11.254,13.805,11.215,13.8z"/>
	    <path d="M8.199,8.792c0.684,1.999,1.97,3.518,3.801,3.518c1.764,0,3.069-1.497,3.775-3.493c1.424-1.437,1.088-2.51,0.759-3.023
		C17.309,2.088,14.944,0,11.866,0C6.349,0,7.312,6.045,7.312,6.045c0.006,0,0.012,0,0.018,0.001
		C7.078,6.616,7.003,7.572,8.199,8.792z M10.504,4.304l-0.403,1.5c1.971-0.601,2.234-0.93,2.544-1.156
		c0.322-0.234,0.594-0.472,0.815-0.688c0.102,0.182,0.23,0.349,0.376,0.501c0.146,0.153,0.362-1.39,0.362-1.39
		s0.544,0.937,0.62,1.239c0.054,0.215,0.398,1.084,0.583,1.163c-0.07,2.868-1.356,5.867-3.401,5.867
		c-1.903,0-3.15-2.601-3.369-5.275C9.154,6.037,10.504,4.304,10.504,4.304z"/>
	    <path d="M21.924,16.987c-1.125-3.075-3.789-4.343-3.824-4.359l-2.776-1.021l-0.368,0.895l0.776,0.285l-2.824,9.32l-0.358-6.258
		h-1.1l-0.352,6.145l-2.794-9.22L9.047,12.5l-0.37-0.894l-2.742,1.007l-0.036,0.015c-0.035,0.016-2.698,1.285-3.824,4.359
		c-0.229,0.625-0.393,1.324-0.459,2.102c0.294,0.358,0.607,0.7,0.937,1.026c0.255,0.252,0.52,0.493,0.794,0.724
		c0.539,0.454,1.113,0.868,1.72,1.234c0.321,0.194,0.652,0.373,0.99,0.54c0.516,0.295,1.128,0.542,1.817,0.737
		C9.174,23.771,10.56,24,12,24c1.65,0,3.23-0.299,4.69-0.844c0.42-0.142,0.816-0.309,1.175-0.502
		c0.322-0.173,0.617-0.366,0.87-0.584c0.067,0.002,0.132,0.003,0.197,0.004c0.606-0.366,1.181-0.78,1.72-1.234
		c0.274-0.231,0.54-0.473,0.794-0.725c0.33-0.326,0.643-0.667,0.937-1.026C22.317,18.311,22.153,17.612,21.924,16.987z
		 M4.971,15.841c-0.037,0.2-0.067,0.405-0.092,0.613H4.873c-0.001,0.027-0.002,0.055-0.004,0.082
		C4.731,17.728,4.766,19,4.832,19.965c-0.764-0.583-1.454-1.257-2.055-2.006c0.581-2.295,2.127-3.581,2.968-4.13
		C5.365,14.378,5.117,15.046,4.971,15.841z M18.237,20.044c-1.147,0.461-2.326,0.542-3.006,0.542c-0.23,0-0.4-0.009-0.496-0.016
		v-0.579c0.03,0.003,1.982,0.232,3.502-0.551V20.044z M19.211,19.931c0.078-1.153,0.108-2.733-0.141-4.09
		c-0.141-0.765-0.376-1.412-0.733-1.95c0.852,0.585,2.314,1.872,2.881,4.074C20.629,18.697,19.955,19.357,19.211,19.931z"/>
</symbol>
<symbol xmlns="http://www.w3.org/2000/svg" id="building" viewBox="0 0 642.834 642.834">
        <path d="M595.828,461.025c-44.793-12.301-121.448-33.363-121.448-33.363V160.496L336.806,77.137V0h-30.047v74.833
				l-138.337,91.098v261.382c0,0-70.963,22.105-116.232,36.213c-34.205,9.555-35.341,25.641-36.774,43.432v102.264
				c5.738,19.402,17.394,31.953,33.893,32.639c44.778,0.266,122.936,0.771,122.936,0.771l298.311,0.203c0,0,68.76-0.5,115.22-0.842
				c22.012-0.857,42.567-9.383,41.609-43.299v-96.012C627.86,476.871,611.127,466.375,595.828,461.025z M61.261,593.928L30.662,603
				v-36.316l30.6-10.043V593.928z M61.261,532.768l-30.6,9.07v-36.307l30.6-10.035V532.768z M107.161,578.621l-30.6,9.094v-36.322
				l30.6-10.021V578.621z M107.161,517.484l-30.6,9.07V490.24l30.6-10.021V517.484z M153.06,563.352l-30.6,9.07v-36.307l30.6-10.02
				V563.352z M153.06,502.191l-30.6,9.07v-36.307l30.6-10.035V502.191z M305.583,456.799L183.66,538.016v-42.053l121.924-81.193
				V456.799z M305.583,380.354L183.66,461.578v-42.053l121.924-81.193V380.354z M305.583,303.925L183.66,385.127v-42.021
				l121.924-81.218V303.925z M305.583,228.43L183.66,309.663v-42.045l121.924-81.194V228.43z M305.583,152.001L183.66,233.203
				v-42.022l121.924-81.225V152.001z M443.905,610.855H336.253L335.981,121.9l107.924,63.333V610.855z M596.762,614l-106.623-32.973
				v-42.055l106.623,32.967V614z M596.762,545.195l-106.623-32.967v-42.037l106.623,32.965V545.195z"/>
</symbol>
<symbol xmlns="http://www.w3.org/2000/svg" id="arrow" viewBox="0 0 33 8">
        <path d="M24.7706 3H0V5H24.7706V8L33 4L24.7706 0V3Z"/>
</symbol>
<symbol xmlns="http://www.w3.org/2000/svg" id="comment" viewBox="-21 -47 682.66669 682">
        <path d="m552.011719-1.332031h-464.023438c-48.515625 0-87.988281 39.464843-87.988281 87.988281v283.972656c0 48.414063 39.300781 87.816406 87.675781 87.988282v128.863281l185.191407-128.863281h279.144531c48.515625 0 87.988281-39.472657 87.988281-87.988282v-283.972656c0-48.523438-39.472656-87.988281-87.988281-87.988281zm50.488281 371.960937c0 27.835938-22.648438 50.488282-50.488281 50.488282h-290.910157l-135.925781 94.585937v-94.585937h-37.1875c-27.839843 0-50.488281-22.652344-50.488281-50.488282v-283.972656c0-27.84375 22.648438-50.488281 50.488281-50.488281h464.023438c27.839843 0 50.488281 22.644531 50.488281 50.488281zm0 0"/><path d="m171.292969 131.171875h297.414062v37.5h-297.414062zm0 0"/><path d="m171.292969 211.171875h297.414062v37.5h-297.414062zm0 0"/><path d="m171.292969 291.171875h297.414062v37.5h-297.414062zm0 0"/>
</symbol>
<symbol xmlns="http://www.w3.org/2000/svg" id="heart" viewBox="0 0 16 15">
        <path d="M8 15L6.84 13.921C2.72 10.1035 0 7.58583 0 4.49591C0 1.9782 1.936 0 4.4 0C5.792 0 7.128 0.662125 8 1.70845C8.872 0.662125 10.208 0 11.6 0C14.064 0 16 1.9782 16 4.49591C16 7.58583 13.28 10.1035 9.16 13.9292L8 15Z"/>
</symbol>
<symbol xmlns="http://www.w3.org/2000/svg" id="play" viewBox="0 0 112 112">
       <path fill-rule="evenodd" clip-rule="evenodd" d="M0 56C0 25.088 25.088 0 56 0C86.912 0 112 25.088 112 56C112 86.912 86.912 112 56 112C25.088 112 0 86.912 0 56ZM78.4 56L44.8 30.8V81.2L78.4 56Z" fill="white"/>
</symbol>
<symbol xmlns="http://www.w3.org/2000/svg" id="japan" viewBox="0 0 49.164 49.164">
        <path d="M49.151,5.304c-0.029-0.013-0.097,0.018-0.229,0.106c-0.892,0.594-4.431,1.993-9.317,3.089
		c-4.602,1.032-10.797,1.762-16.694,2.322c-6.185,0.586-14.895,0.808-21.319-0.537c-0.541-0.113-0.889,0.063-0.837,0.427
		c0.037,0.258,0.096,0.491,0.308,0.547c0.284,0.075,0.402,0.357,0.262,0.744c-0.226,0.621-0.924,0.949-1.285,1.38
		c-0.371,0.443,1.912,1.01,2.994,0.83c1.289-0.215-0.361,0.758,1.623,0.758c1.163,0,0.386,2.125,1.263,2.164
		c0.189,0.009,2.134-0.107,4.982-0.288c0.551-0.035,0.998,0.212,0.998,0.552s0.137,0.65,0.307,0.692
		c0.169,0.042,0.329,0.271,0.356,0.51s-0.258,0.57-0.638,0.74c-0.38,0.169-0.642,0.467-0.586,0.665
		c0.056,0.198-0.346,0.347-0.898,0.333l-3.917-0.102c-0.552-0.014-0.932,0.417-0.849,0.963l0.056,0.368
		c0.083,0.546,0.598,0.985,1.15,0.981l4.431-0.034c0.552-0.004,0.979,0.44,0.953,0.991l-0.267,5.704
		c-0.026,0.552-0.494,1.006-1.047,1.015l-1.112,0.018c-0.552,0.009-1.125-0.178-1.279-0.417s-0.28-0.661-0.28-0.942
		s0.205-0.533,0.458-0.561c0.253-0.029,0.47-0.2,0.485-0.383s0.21-0.32,0.435-0.307s0.408-0.111,0.408-0.28
		c0-0.168-0.437-0.401-0.977-0.519L8.03,26.6c-0.539-0.119-1.417-0.133-1.96-0.032l-1.042,0.194
		c-0.543,0.101-0.983,0.297-0.983,0.438s0.171,0.267,0.381,0.282c0.21,0.015,0.381,0.152,0.381,0.307s0.32,0.314,0.715,0.356
		s0.704,0.328,0.69,0.638s-0.208,0.79-0.433,1.071c-0.225,0.281-0.408,0.886-0.408,1.351s0.125,0.864,0.28,0.893
		c0.154,0.029,0.295,0.499,0.315,1.051l0.137,3.868c0.02,0.552-0.125,1.216-0.323,1.484s-0.346,0.828-0.331,1.251
		c0.015,0.423,0.152,0.767,0.307,0.767s0.273,0.448,0.265,1l-0.02,1.315c-0.008,0.552,0.433,1.009,0.985,1.021l0.395,0.008
		c0.552,0.011,1-0.427,1-0.979v-1.062c0-0.552,0.448-1.008,1-1.017l0.963-0.016c0.552-0.009,1.008,0.431,1.017,0.983l0.015,0.859
		c0.01,0.552,0.465,0.988,1.017,0.972l1.775-0.049c0.552-0.015,1.007-0.475,1.016-1.027l0.017-1.062
		c0.009-0.552,0.394-1.011,0.859-1.025c0.466-0.014,0.843,0.423,0.843,0.975v0.552c0,0.552,0.448,1.009,1,1.02l0.449,0.009
		c0.552,0.011,0.982-0.427,0.961-0.979l-0.026-0.653c-0.022-0.552,0.087-0.999,0.243-0.999s0.235-0.412,0.178-0.92
		s-0.183-1.125-0.282-1.378c-0.098-0.253-0.187-0.905-0.197-1.458l-0.061-3.155c-0.011-0.552,0.072-0.989,0.184-0.975
		s0.192-0.375,0.178-0.868c-0.014-0.493-0.105-1.052-0.203-1.249s-0.19-0.608-0.205-0.918s0.179-0.561,0.433-0.561
		s0.46-0.137,0.46-0.307c0-0.169,0.206-0.329,0.46-0.356s0.46-0.141,0.46-0.255c0-0.113-0.428-0.338-0.955-0.502l-1.053-0.327
		c-0.527-0.164-1.388-0.183-1.922-0.043l-0.613,0.161c-0.534,0.14-0.979,0.367-0.994,0.508s0.133,0.3,0.331,0.356
		s0.347,0.216,0.334,0.356c-0.014,0.141,0.158,0.278,0.383,0.307c0.225,0.029,0.396,0.383,0.381,0.791s-0.474,0.706-1.024,0.665
		l-0.044-0.003c-0.551-0.041-0.997-0.523-0.997-1.075v-5.653c0-0.552,0.447-1.023,0.999-1.051l14.99-0.768
		c0.552-0.028,0.979,0.396,0.955,0.948L31.438,28.7c-0.024,0.552-0.353,1.01-0.734,1.024s-0.701-0.135-0.715-0.331l-0.025-0.356
		c0,0-0.022-0.309-0.05-0.69c-0.027-0.381,0.144-0.701,0.383-0.715s0.467-0.184,0.51-0.381c0.042-0.197,0.202-0.368,0.356-0.383
		s0.28-0.175,0.28-0.359c0-0.184-0.435-0.438-0.971-0.57l-0.759-0.186c-0.536-0.132-1.406-0.131-1.942,0l-1.377,0.339
		c-0.536,0.132-0.971,0.365-0.971,0.521s0.206,0.259,0.46,0.23c0.254-0.029,0.471,0.109,0.485,0.307
		c0.014,0.198,0.208,0.415,0.433,0.485s0.442,0.401,0.485,0.74c0.042,0.339-0.003,0.83-0.102,1.098
		c-0.098,0.268-0.167,0.919-0.153,1.454s0.082,1.084,0.153,1.224c0.071,0.141,0.136,0.702,0.146,1.255l0.065,3.714
		c0.01,0.552-0.085,1.205-0.21,1.458c-0.126,0.253-0.206,0.881-0.178,1.402c0.027,0.522,0.129,0.956,0.228,0.97
		c0.098,0.014,0.13,0.47,0.071,1.019l-0.039,0.361c-0.059,0.549,0.341,0.994,0.893,0.994h1.112c0.552,0,1-0.448,1-1v-0.349
		c0-0.552,0.354-0.988,0.791-0.973s0.791,0.475,0.791,1.027v0.192c0,0.552,0.448,1,1,1h2.284c0.552,0,0.965-0.446,0.921-0.997
		l-0.044-0.559c-0.044-0.551,0.263-0.985,0.685-0.97s0.775,0.475,0.787,1.027l0.008,0.345c0.013,0.552,0.471,1,1.023,1h0.652
		c0.552,0,0.965-0.446,0.922-0.997l-0.047-0.608c-0.043-0.551-0.021-1.019,0.049-1.047c0.07-0.027,0.149-0.449,0.178-0.943
		c0.029-0.494-0.062-1.133-0.203-1.43c-0.141-0.296-0.25-0.984-0.244-1.537l0.077-6.978c0.006-0.552,0.194-1.069,0.419-1.153
		c0.225-0.085,0.397-0.313,0.383-0.51s0.112-0.368,0.282-0.383c0.169-0.015,0.307-0.187,0.307-0.383
		c0-0.197-0.437-0.453-0.977-0.572l-0.599-0.132c-0.539-0.119-1.41-0.104-1.945,0.034l-1.225,0.316
		c-0.535,0.138-0.946,0.331-0.919,0.43s0.232,0.215,0.458,0.257c0.225,0.042,0.408,0.225,0.408,0.408
		c0,0.183,0.251,0.388,0.561,0.458s0.516,0.343,0.46,0.611s-0.181,0.633-0.28,0.816c-0.098,0.183-0.556,0.355-1.021,0.383
		s-0.942-0.385-1.064-0.924l-0.678-3.001c-0.122-0.539-0.227-1.423-0.235-1.975l-0.024-1.621c-0.008-0.552,0.432-1.027,0.983-1.06
		l6.423-0.389c0.551-0.033,1.005-0.508,1.014-1.06l0.018-1.161c0.009-0.552-0.428-0.942-0.976-0.87l-4.65,0.607
		c-0.548,0.071-1.367-0.115-1.83-0.416l-0.362-0.235c-0.463-0.301-0.838-0.74-0.838-0.98s0.16-0.469,0.356-0.512
		c0.197-0.042,0.365-0.337,0.377-0.658c0.011-0.321,0.466-0.612,1.017-0.649c3.116-0.21,5.552-0.373,6.651-0.447
		c0.288-0.019,0.18-1.046,0.613-1.912c0.433-0.866,4.004-1.263,5.015-1.984c0.832-0.594-0.125-2.193-0.298-3.328
		c-0.037-0.243,0.839-0.318,0.839-0.496C48.565,6.215,49.264,5.35,49.151,5.304z M11.16,38.142c-0.155,0.21-0.726,0.414-1.277,0.454
		l-0.098,0.007c-0.551,0.04-1.089-0.121-1.203-0.36c-0.113-0.239-0.226-0.88-0.252-1.432l-0.159-3.409
		c-0.026-0.552,0.401-1.006,0.953-1.015l1.315-0.021c0.552-0.009,1,0.431,1,0.984v3.411h0.001
		C11.44,37.313,11.315,37.932,11.16,38.142z M15.605,32.46l0.297-0.013c0.552-0.024,1.003,0.404,1.009,0.957l0.031,3.204
		c0.005,0.552-0.059,1.171-0.144,1.381s-0.53,0.359-0.994,0.331c-0.464-0.028-0.921-0.198-1.019-0.381s-0.178-0.779-0.178-1.331
		v-3.105C14.606,32.951,15.054,32.483,15.605,32.46z M20.034,19.902l-2.9,0.152c-0.552,0.029-1.01-0.107-1.023-0.304
		c-0.014-0.197-0.299-0.505-0.638-0.688s-0.613-0.503-0.613-0.715s0.161-0.383,0.359-0.383s0.368-0.319,0.379-0.713
		c0.011-0.393,0.466-0.742,1.017-0.777c0.878-0.057,1.781-0.115,2.707-0.176c0.551-0.036,1.085,0.374,1.192,0.915l0.326,1.654
		C20.946,19.41,20.585,19.873,20.034,19.902z M30.879,38.6c-0.31-0.042-0.607-0.225-0.663-0.408
		c-0.056-0.183-0.113-0.779-0.128-1.331l-0.1-3.764c-0.015-0.552,0.293-0.977,0.688-0.95s0.718,0.497,0.722,1.05l0.034,4.48
		C31.437,38.229,31.189,38.642,30.879,38.6z M30.974,18.237l-0.036,0.015c-0.512,0.208-0.903,0.524-0.875,0.707
		c0.029,0.183-0.395,0.359-0.946,0.393l-3.005,0.184c-0.551,0.034-0.901-0.376-0.781-0.915l0.396-1.786
		c0.12-0.539,0.664-1.006,1.215-1.043c1.063-0.071,2.094-0.14,3.117-0.209c0.551-0.037,1.027,0.219,1.064,0.571
		c0.036,0.352,0.214,0.638,0.397,0.638s0.343,0.239,0.356,0.534S31.485,18.029,30.974,18.237z M36.518,32.174
		c0.493-0.042,0.905,0.371,0.919,0.923l0.1,3.764c0.015,0.552-0.087,1.171-0.228,1.383c-0.141,0.212-0.529,0.36-0.868,0.331
		s-0.628-0.499-0.646-1.051l-0.138-4.274C35.639,32.698,36.025,32.216,36.518,32.174z"/>
</symbol>
<symbol xmlns="http://www.w3.org/2000/svg" id="bars" aria-hidden="true" data-icon="bars" data-prefix="fas" viewBox="0 0 448 512">
        <path d="M16 132h416c8.837 0 16-7.163 16-16V76c0-8.837-7.163-16-16-16H16C7.163 60 0 67.163 0 76v40c0 8.837 7.163 16 16 16zm0 160h416c8.837 0 16-7.163 16-16v-40c0-8.837-7.163-16-16-16H16c-8.837 0-16 7.163-16 16v40c0 8.837 7.163 16 16 16zm0 160h416c8.837 0 16-7.163 16-16v-40c0-8.837-7.163-16-16-16H16c-8.837 0-16 7.163-16 16v40c0 8.837 7.163 16 16 16z"/>
</symbol>
<symbol xmlns="http://www.w3.org/2000/svg" id="cross" aria-hidden="true" data-icon="times" data-prefix="fas" viewBox="0 0 352 512">
        <path d="M242.72 256l100.07-100.07c12.28-12.28 12.28-32.19 0-44.48l-22.24-22.24c-12.28-12.28-32.19-12.28-44.48 0L176 189.28 75.93 89.21c-12.28-12.28-32.19-12.28-44.48 0L9.21 111.45c-12.28 12.28-12.28 32.19 0 44.48L109.28 256 9.21 356.07c-12.28 12.28-12.28 32.19 0 44.48l22.24 22.24c12.28 12.28 32.2 12.28 44.48 0L176 322.72l100.07 100.07c12.28 12.28 32.2 12.28 44.48 0l22.24-22.24c12.28-12.28 12.28-32.19 0-44.48L242.72 256z"/>
</symbol>
</svg>
