<?xml version="1.0" standalone="no"?>
<!DOCTYPE svg PUBLIC "-//W3C//DTD SVG 20010904//EN"
 "http://www.w3.org/TR/2001/REC-SVG-20010904/DTD/svg10.dtd">
<svg version="1.0" xmlns="http://www.w3.org/2000/svg"
 width="1280.000000pt" height="947.000000pt" viewBox="0 0 1280.000000 947.000000"
 preserveAspectRatio="xMidYMid meet">
<g transform="translate(0.000000,947.000000) scale(0.100000,-0.100000)"
fill="#000000" stroke="none">
<path d="M6126 8495 c-142 -315 -419 -562 -817 -728 -392 -165 -919 -279
-1709 -371 -360 -42 -337 -42 -426 -13 -44 14 -90 28 -104 31 -82 18 -292 186
-380 303 -59 78 -65 84 -45 43 40 -80 146 -221 237 -316 54 -55 95 -104 91
-108 -3 -3 -17 -6 -30 -6 -13 0 -23 -4 -23 -8 0 -8 236 -125 395 -196 56 -26
74 -44 280 -283 121 -141 308 -355 415 -477 107 -122 244 -278 304 -348 102
-118 111 -127 152 -133 24 -3 44 -12 44 -18 0 -33 -30 -259 -35 -267 -3 -6
-11 -10 -17 -10 -7 0 -8 25 -4 80 4 44 5 80 2 80 -2 0 -136 -65 -298 -144
-1035 -509 -1964 -803 -2743 -867 -196 -16 -508 -7 -659 20 -145 26 -275 68
-383 126 -46 24 -83 42 -83 40 0 -2 34 -28 75 -58 208 -152 491 -250 798 -276
170 -15 163 -28 -24 -47 -72 -7 -133 -15 -135 -17 -5 -5 260 -142 417 -214 68
-32 125 -62 127 -68 1 -6 -63 -12 -170 -15 l-173 -5 -3 -45 c-2 -25 -1 -72 3
-106 l6 -60 47 -11 c79 -18 775 -261 783 -274 4 -7 5 -35 3 -63 -3 -28 -16
-195 -30 -371 -14 -176 -38 -484 -54 -685 -17 -201 -46 -558 -65 -794 -19
-236 -38 -432 -42 -436 -14 -12 -307 -39 -360 -33 l-51 5 -6 -43 c-3 -24 -7
-67 -10 -96 l-5 -51 37 -6 c44 -6 38 -6 507 -55 l370 -40 865 -6 c563 -5 869
-11 878 -17 6 -6 12 -19 12 -30 0 -19 5 -20 193 -14 105 4 437 11 737 16 300
6 788 14 1085 20 297 5 821 15 1165 21 1529 26 1436 23 1454 42 13 12 35 17
79 17 34 0 229 9 432 20 343 17 420 25 1043 104 371 47 681 86 689 86 21 0 13
25 -41 143 l-45 97 -70 -6 c-84 -8 -74 -32 -96 236 -8 107 -42 530 -76 940
-64 781 -76 1046 -49 1061 8 4 87 24 175 44 88 20 254 68 370 106 286 95 445
172 445 215 0 21 -51 42 -129 55 -39 7 -71 15 -71 19 0 4 66 38 148 75 248
115 498 242 490 250 -2 2 -59 8 -128 15 -210 18 -215 25 -60 80 183 64 327
150 443 261 l62 60 -65 -46 c-138 -99 -325 -173 -540 -212 -137 -25 -526 -25
-705 0 -491 70 -1027 237 -1630 508 -296 133 -823 410 -1090 573 -88 54 -100
65 -103 91 -2 26 71 123 557 740 l560 710 96 59 c83 50 94 60 79 70 -14 11 -9
19 48 63 155 124 333 339 453 548 l28 50 -91 -86 c-352 -335 -844 -539 -1399
-581 -130 -10 -172 -9 -300 6 -760 89 -1450 385 -1823 784 -78 83 -211 267
-225 311 -3 12 -10 21 -14 21 -4 0 -24 -38 -45 -85z m-1171 -5250 l0 -980 -43
1 c-23 0 -44 3 -47 5 -9 10 -34 1715 -26 1800 8 89 27 132 75 171 20 16 22 16
31 0 7 -11 10 -358 10 -997z m166 963 l34 -53 3 -947 c3 -866 2 -949 -13 -954
-9 -4 -21 -2 -28 5 -7 7 -16 303 -30 981 -17 864 -17 1020 -3 1020 2 0 19 -24
37 -52z m2574 -920 c-9 -502 -18 -919 -20 -925 -3 -8 -22 -13 -50 -13 l-45 0
0 733 0 732 35 135 c59 228 77 283 87 266 5 -9 2 -400 -7 -928z m228 867 c20
-25 29 -49 33 -92 6 -58 -24 -1667 -31 -1690 -3 -8 -23 -13 -56 -13 l-51 0 5
913 c2 501 8 922 12 934 l7 23 27 -21 c14 -11 38 -36 54 -54z m-2645 -230
c188 -342 173 -320 217 -323 22 -1 400 -14 840 -28 440 -15 841 -29 890 -33
l90 -6 -3 -510 c-1 -280 -5 -552 -9 -602 -5 -92 -6 -93 -32 -93 -39 0 -58 -15
-42 -33 7 -10 11 -38 9 -74 -3 -52 -5 -58 -23 -54 -30 7 -1643 -1 -1697 -8
-44 -6 -73 -28 -498 -384 -247 -208 -457 -380 -465 -383 -8 -4 -15 -2 -15 3 0
6 171 155 380 332 l380 322 0 71 c0 59 4 76 21 94 l20 21 -51 5 c-28 3 -52 7
-54 9 -6 6 -24 1753 -19 1762 7 11 4 15 61 -88z m-575 -7 c3 -18 7 -393 9
-833 l3 -800 -44 -3 c-24 -2 -48 1 -52 5 -11 11 -42 1480 -33 1546 5 43 11 52
53 82 25 19 49 35 52 35 4 0 9 -15 12 -32z m-226 -1302 c-1 -245 -5 -320 -14
-324 -10 -3 -13 142 -13 701 0 387 3 720 7 738 10 44 24 -703 20 -1115z m4094
1009 c4 -71 12 -330 19 -575 7 -245 15 -544 19 -665 9 -256 7 -262 -57 -215
l-42 30 0 749 c0 412 3 763 6 780 5 25 11 31 28 29 20 -3 21 -11 27 -133z
m428 116 c12 -19 20 -145 31 -506 23 -761 33 -1203 27 -1218 -5 -14 -23 -17
-117 -17 -110 0 -112 0 -165 35 l-55 35 0 838 c0 461 3 842 7 846 4 4 65 6
136 4 95 -2 130 -7 136 -17z m1210 -49 c14 -54 19 -114 41 -464 22 -347 49
-773 79 -1248 11 -168 16 -309 12 -313 -8 -8 -361 158 -372 174 -3 6 -11 179
-18 387 -7 207 -16 483 -21 612 -19 485 -24 834 -11 858 10 19 20 22 79 23 37
1 94 4 127 8 33 4 63 5 67 3 4 -1 12 -20 17 -40z m-731 22 c143 -7 144 -7 154
-33 12 -32 24 -308 37 -901 6 -250 14 -533 17 -629 l7 -174 -34 8 c-19 4 -106
10 -194 12 -88 2 -164 8 -169 13 -4 4 -14 169 -21 367 -8 197 -19 496 -26 665
-14 375 -17 647 -6 672 6 15 14 17 50 12 23 -3 106 -8 185 -12z m-6864 -30
c21 -8 21 -80 1 -644 -8 -234 -19 -582 -25 -775 -6 -192 -13 -387 -16 -431
l-6 -82 -139 -66 c-76 -36 -145 -66 -154 -66 -22 0 -21 26 35 855 5 83 19 299
30 480 28 451 48 714 55 725 7 11 193 14 219 4z m674 -20 c15 -4 16 -302 2
-649 -5 -126 -14 -405 -20 -620 -6 -214 -13 -409 -16 -432 l-5 -43 -160 0
c-126 0 -166 -3 -191 -16 -21 -11 -34 -12 -41 -5 -7 7 -6 164 2 508 26 1077
31 1210 47 1260 2 10 45 12 186 7 101 -3 189 -7 196 -10z m523 -14 c9 -32 11
-1286 2 -1504 l-6 -166 -49 -30 c-46 -29 -53 -30 -163 -30 l-115 0 0 114 c0
107 5 311 30 1191 6 204 14 386 18 405 7 32 11 35 52 41 25 4 85 6 135 5 86
-1 89 -2 96 -26z m207 -757 l2 -783 -40 -26 c-28 -19 -44 -24 -51 -17 -7 7 -7
123 0 374 6 200 15 533 21 739 10 358 16 475 27 493 3 4 12 7 21 5 16 -3 17
-66 20 -785z m3428 225 c-10 -626 -16 -776 -33 -783 -8 -3 -19 -3 -24 1 -5 3
-9 253 -9 600 l0 594 37 0 36 0 -7 -412z"/>
</g>
</svg>
